<svg width="52" height="53" viewBox="0 0 52 53" fill="none" xmlns="http://www.w3.org/2000/svg">
<path d="M32.5 23.9821V30.4821M32.5 23.9821C32.5 22.7855 33.4701 21.8154 34.6667 21.8154M32.5 23.9821V36.9821M32.5 30.4821H8.66667V13.1488C8.66667 10.7555 10.6068 8.81543 13 8.81543H36.8333C39.2266 8.81543 41.1667 10.7555 41.1667 13.1488V21.8154H34.6667M32.5 30.4821V36.9821M32.5 30.4821L9.75 30.4821C7.95507 30.4821 6.5 31.9372 6.5 33.7321C6.5 35.527 7.95507 36.9821 9.75 36.9821H32.5M34.6667 21.8154L43.3333 21.8154C44.5299 21.8154 45.5 22.7855 45.5 23.9821V36.9821M45.5 36.9821H32.5M45.5 36.9821V41.3154C45.5 42.512 44.5299 43.4821 43.3333 43.4821H34.6667C33.47 43.4821 32.5 42.512 32.5 41.3154V36.9821" stroke="white" stroke-width="3.25" stroke-linejoin="round"/>
</svg>
